Coordinates
version=1
nRows=41
nColumns=24
inDegrees=yes

Units are S.I. units (second, meters, Newtons, ...)
If the header above contains a line with 'inDegrees', this indicates whether rotational values are in degrees (yes) or radians (no).

endheader
time	pelvis_tilt	pelvis_list	pelvis_rotation	pelvis_tx	pelvis_ty	pelvis_tz	hip_flexion_r	hip_adduction_r	hip_rotation_r	knee_angle_r	ankle_angle_r	subtalar_angle_r	mtp_angle_r	hip_flexion_l	hip_adduction_l	hip_rotation_l	knee_angle_l	ankle_angle_l	subtalar_angle_l	mtp_angle_l	lumbar_extension	lumbar_bending	lumbar_rotation
3.800000	10.464183	0.852028	-181.336032	0.284244	0.696294	-1.223151	52.864292	-24.639621	-20.739891	-75.822130	28.169351	12.898909	0.000000	53.267480	-28.804171	-15.846645	-74.324598	26.885355	16.906992	0.000000	-6.619683	1.930020	0.423582
3.805000	10.472753	0.871149	-181.386286	0.283980	0.699427	-1.223016	52.424710	-24.449763	-20.908254	-75.037237	27.774944	12.930298	0.000000	52.799072	-28.675883	-16.060778	-73.582869	26.532016	16.803375	0.000000	-6.431712	1.810569	0.879896
3.810000	10.401876	0.801552	-181.367304	0.283640	0.702583	-1.222946	51.925710	-24.379403	-21.055527	-74.296931	27.440277	12.882675	0.000000	52.221083	-28.430548	-16.296849	-72.819292	26.218267	16.700271	0.000000	-6.483362	1.898782	0.375449
3.815000	10.392881	0.829543	-181.419247	0.283210	0.705824	-1.222862	51.438555	-24.172295	-21.241396	-73.485949	27.087175	12.886201	0.000000	51.706894	-28.292636	-16.478322	-72.045320	25.840996	16.333336	0.000000	-6.387963	1.953413	0.367270
3.820000	10.441047	0.842535	-181.480635	0.282726	0.709042	-1.222587	51.020059	-23.981013	-21.407358	-72.665496	26.693551	12.874380	0.000000	51.243944	-28.130395	-16.691902	-71.256360	25.538541	16.373306	0.000000	-6.237981	2.061052	0.281180
3.825000	10.417546	0.882161	-181.527309	0.282443	0.712107	-1.222394	50.551523	-23.789218	-21.592777	-71.893233	26.326961	12.874276	0.000000	50.770436	-28.001489	-16.852024	-70.533542	25.196718	16.230329	0.000000	-6.098796	1.957231	0.744392
3.830000	10.385178	0.840523	-181.532170	0.282086	0.715234	-1.222347	50.073067	-23.660733	-21.737467	-71.106448	25.980325	12.825677	0.000000	50.234518	-27.778756	-17.058195	-69.742594	24.865283	16.128412	0.000000	-6.091987	2.005351	0.424158
3.835000	10.385559	0.848193	-181.566139	0.281654	0.718376	-1.222112	49.597043	-23.485270	-21.892644	-70.273838	25.609980	12.848286	0.000000	49.691048	-27.568020	-17.247257	-68.774145	24.666733	16.011484	0.000000	-5.987412	2.049072	0.422790
3.840000	10.371400	0.884582	-181.611066	0.281254	0.721428	-1.221945	49.114357	-23.288069	-22.086497	-69.468122	25.235052	12.882104	0.000000	49.205646	-27.430487	-17.408318	-68.017958	24.329533	15.878158	0.000000	-5.847875	1.993464	0.781214
3.845000	10.368771	0.837226	-181.597663	0.280835	0.724568	-1.221731	48.664347	-23.184288	-22.232145	-68.668264	24.832748	12.847214	0.000000	48.742629	-27.191376	-17.578868	-67.374500	23.825281	15.798772	0.000000	-5.805101	2.086050	0.417044
3.850000	10.353067	0.879189	-181.675472	0.280415	0.727598	-1.221496	48.196002	-22.960620	-22.404737	-67.862202	24.471037	12.798436	0.000000	48.198505	-27.041971	-17.761801	-66.450072	23.577977	15.551322	0.000000	-5.715437	2.038482	0.784620
3.855000	10.340609	0.862364	-181.715038	0.280105	0.730599	-1.221271	47.759989	-22.795452	-22.529625	-67.068556	24.059259	12.755801	0.000000	47.748211	-26.854336	-17.914961	-65.836578	23.096545	15.372301	0.000000	-5.598552	2.034307	0.848012
3.860000	10.341340	0.949660	-181.774575	0.279509	0.733780	-1.221334	47.224026	-22.489991	-22.733969	-66.174456	23.668530	12.714818	0.000000	47.200344	-26.751695	-18.062771	-64.847534	22.815415	15.256562	0.000000	-5.522140	2.215182	0.653380
3.865000	10.366178	0.895724	-181.766684	0.279256	0.736611	-1.220990	46.826551	-22.409170	-22.860352	-65.381992	23.266131	12.754430	0.000000	46.765242	-26.479579	-18.227153	-64.078418	22.447685	15.146248	0.000000	-5.436708	2.235392	0.487590
3.870000	10.329624	0.877913	-181.778518	0.278856	0.739609	-1.220832	46.338316	-22.244784	-22.980828	-64.563737	22.904744	12.737402	0.000000	46.243251	-26.258014	-18.381851	-63.293715	22.103883	14.962230	0.000000	-5.320190	2.110640	0.787117
3.875000	10.375465	0.897985	-181.837146	0.278434	0.742563	-1.220541	45.929361	-22.042544	-23.133096	-63.725849	22.494335	12.713611	0.000000	45.800408	-26.072951	-18.535739	-62.486086	21.717277	14.741234	0.000000	-5.168690	2.134789	0.911039
3.880000	10.434994	0.893646	-181.872164	0.278070	0.745461	-1.220396	45.543708	-21.859203	-23.275104	-62.891981	22.082575	12.697811	0.000000	45.415400	-25.899172	-18.687770	-61.810936	21.233113	14.625179	0.000000	-5.068289	2.284154	0.571317
3.885000	10.367871	0.869817	-181.875287	0.277693	0.748341	-1.220250	45.034590	-21.714786	-23.407377	-62.088722	21.730504	12.639505	0.000000	44.869240	-25.681592	-18.861852	-61.019492	20.889820	14.442580	0.000000	-5.025498	2.249777	0.572241
3.890000	10.376822	0.847942	-181.894846	0.277316	0.751177	-1.220111	44.552621	-21.517988	-23.377756	-61.149695	21.565140	13.051672	0.000000	44.396303	-25.458823	-19.015412	-60.212564	20.526167	14.277820	0.000000	-4.955735	2.242005	0.510982
3.895000	10.452657	0.857175	-181.941391	0.276884	0.753921	-1.219801	44.176704	-21.328442	-23.513187	-60.300057	21.133082	13.099985	0.000000	43.972715	-25.259095	-19.148231	-59.365393	20.239562	14.214542	0.000000	-4.710818	2.261104	0.687151
3.900000	10.435360	0.822992	-181.928015	0.276521	0.756701	-1.219679	43.727282	-21.198395	-23.652439	-59.503317	20.745324	13.056662	0.000000	43.502074	-25.023640	-19.317086	-58.590215	19.772691	13.970670	0.000000	-4.710316	2.240824	0.532040
3.905000	10.447384	0.839539	-181.973114	0.276129	0.759450	-1.219526	43.302806	-20.982158	-23.773532	-58.680891	20.346851	13.005902	0.000000	43.047148	-24.864721	-19.476245	-57.796747	19.386039	13.821455	0.000000	-4.605116	2.302782	0.487759
3.910000	10.486416	0.826686	-181.985020	0.275697	0.762185	-1.219300	42.896120	-20.828450	-23.913967	-57.851848	19.921393	13.028875	0.000000	42.605434	-24.651932	-19.639053	-56.974316	19.005817	13.721928	0.000000	-4.412080	2.228468	0.683655
3.915000	10.607654	0.854943	-182.032802	0.275304	0.764855	-1.219114	42.548474	-20.580587	-24.011655	-56.946948	19.499536	13.064507	0.000000	42.239535	-24.487928	-19.763820	-56.113090	18.684070	13.682842	0.000000	-4.195698	2.321572	0.604549
3.920000	10.555601	0.913375	-182.069363	0.274680	0.767715	-1.219190	41.977664	-20.294987	-24.146540	-56.034317	19.114581	13.033913	0.000000	41.688237	-24.377218	-19.900830	-55.273127	18.317602	13.601532	0.000000	-4.210873	2.456890	0.358982
3.925000	10.544060	0.816946	-182.024974	0.274404	0.770196	-1.218937	41.574806	-20.254636	-24.234758	-55.274972	18.754247	13.023685	0.000000	41.195881	-24.032942	-20.066123	-54.355892	17.951218	13.392897	0.000000	-4.155987	2.366364	0.232574
3.930000	10.582181	0.830351	-182.066736	0.273991	0.772754	-1.218714	41.181995	-20.052479	-24.350102	-54.448851	18.340312	13.030617	0.000000	40.766961	-23.868068	-20.228350	-53.555953	17.553876	13.269822	0.000000	-3.976689	2.332226	0.473797
3.935000	10.654177	0.884854	-182.134324	0.273534	0.775264	-1.218484	40.806257	-19.794823	-24.475654	-53.595448	17.935537	12.989267	0.000000	40.375388	-23.741031	-20.353701	-52.759749	17.178146	13.109749	0.000000	-3.814700	2.418523	0.541943
3.940000	10.625899	0.826387	-182.107108	0.273058	0.777821	-1.218441	40.336684	-19.669529	-24.567206	-52.769736	17.566304	12.911884	0.000000	39.870438	-23.482350	-20.505869	-51.927350	16.786610	13.029436	0.000000	-3.778348	2.434721	0.232864
3.945000	10.616210	0.898380	-182.138416	0.272604	0.780287	-1.218449	39.853295	-19.396539	-24.707416	-51.909958	17.167361	12.941317	0.000000	39.413467	-23.404706	-20.647233	-51.139222	16.428673	13.015072	0.000000	-3.670558	2.387597	0.487558
3.950000	10.722598	0.845173	-182.150833	0.272119	0.782742	-1.218141	39.515417	-19.243214	-24.756273	-51.019119	16.736476	12.881990	0.000000	39.032979	-23.134629	-20.805673	-50.292318	16.074021	12.911999	0.000000	-3.479600	2.490514	0.185303
3.955000	10.661762	0.903786	-182.150938	0.271752	0.785166	-1.218269	39.007047	-18.991688	-24.905728	-50.210725	16.361541	12.826814	0.000000	38.550308	-23.025421	-20.912938	-49.507942	15.677547	12.847140	0.000000	-3.425257	2.398345	0.451748
3.960000	10.744282	0.860086	-182.154557	0.271396	0.787392	-1.217939	38.684188	-18.870433	-25.000743	-49.403950	15.939041	12.819281	0.000000	38.189050	-22.779751	-21.060641	-48.711321	15.290683	12.772411	0.000000	-3.238638	2.390573	0.419438
3.965000	10.795065	0.883994	-182.224744	0.270884	0.789746	-1.217702	38.299176	-18.626065	-25.063382	-48.546071	15.514785	12.747929	0.000000	37.757968	-22.616855	-21.191924	-47.889600	14.927437	12.571984	0.000000	-3.075754	2.441904	0.490141
3.970000	10.760409	0.874136	-182.200616	0.270452	0.792067	-1.217643	37.821902	-18.458316	-25.189319	-47.728361	15.126606	12.635389	0.000000	37.276210	-22.399841	-21.288733	-47.071503	14.538787	12.489142	0.000000	-3.027971	2.394609	0.489692
3.975000	10.852906	0.888681	-182.235844	0.269916	0.794318	-1.217455	37.457055	-18.233060	-25.275557	-46.844310	14.696013	12.626587	0.000000	36.893522	-22.227632	-21.429168	-46.236219	14.151514	12.406880	0.000000	-2.790824	2.431843	0.514171
3.980000	10.706590	0.742926	-182.128727	0.269283	0.796700	-1.216781	36.862727	-18.307552	-25.415003	-46.046930	14.335115	12.622994	0.000000	36.271208	-21.773616	-21.521303	-45.400622	13.809569	12.218353	0.000000	-2.870559	2.346238	0.297666
3.985000	10.862166	0.873847	-182.264102	0.269003	0.798737	-1.217076	36.608338	-17.859651	-25.422381	-45.178527	13.920565	12.514529	0.000000	35.995707	-21.813665	-21.657311	-44.621111	13.423923	12.145728	0.000000	-2.625409	2.451896	0.463790
3.990000	10.712670	0.841674	-182.192179	0.268171	0.801240	-1.216663	35.948519	-17.776764	-25.611982	-44.318117	13.533899	12.518719	0.000000	35.346280	-21.524123	-21.777259	-43.748355	13.044826	12.081564	0.000000	-2.684809	2.415710	0.417136
3.995000	10.819919	0.799257	-182.209575	0.267750	0.803311	-1.216329	35.636863	-17.625303	-25.663256	-43.459847	13.089928	12.518846	0.000000	34.997877	-21.271515	-21.903534	-42.925137	12.669847	11.950487	0.000000	-2.452929	2.431578	0.364775
4.000000	10.706383	0.817793	-182.176243	0.267167	0.805570	-1.216416	35.035808	-17.407539	-25.787885	-42.593586	12.706321	12.464355	0.000000	34.424673	-21.097521	-22.013817	-42.088616	12.279063	11.883928	0.000000	-2.476946	2.383858	0.356369
